<?xml version="1.0" encoding="utf-8"?>
<!-- Generator: Adobe Illustrator 21.0.0, SVG Export Plug-In . SVG Version: 6.00 Build 0)  -->
<svg version="1.1" id="Layer_1" xmlns="http://www.w3.org/2000/svg" xmlns:xlink="http://www.w3.org/1999/xlink" x="0px" y="0px"
	 viewBox="0 0 168 26" style="enable-background:new 0 0 168 26;" xml:space="preserve">
<style type="text/css">
	.st0{fill:#D62734;}
	.st1{font-family:'VALORANT-Regular';}
	.st2{font-size:11.9267px;}
	.st3{fill:#050606;}
	.st4{fill:#91908E;}
</style>
<g>
	<g>
		<g>
			<path class="st0" d="M95.9,7.2c0.4-0.1,7.9,3.5,7.9,3.5h-2.3h-31l29.3-0.6L95.9,7.2z"/>
		</g>
		<g>
			<path class="st0" d="M54.9,11.5c-19-2.3-34.8,1-34.8,1L17.8,10l6.7-0.1c-8.3-1.1-11.7-3.7-11.7-3.7c0.7,0.1,18,1.9,22.7,1.5
				c1.5-0.1,3-0.4,4.5-0.6c2.7-0.5,5.3-1.2,7.3-1.6C53.5,4.4,60.4,3.4,67,2.9c3.1-0.2,6.3-0.3,9.4-0.3c6,0,12,0.5,17.8,1.4
				c2.8,0.4,5.5,1,8.1,1.7c2.1,0.6,4,1.2,6.2,1.7c0.9,0.2,1.8,0.4,2.7,0.5c1.5,0.2,3,0.2,4.5,0.3c5.3,0.1,10.5,0.1,15.7,0.5
				c6.6,0.5,13.1,1.1,19.5,2c0.2,0,3.1,0.3,3.1,0.4v0.3c-25.3-3.3-35.2-2.1-39.1-2.2c-1.7,0-3.5-0.1-5.1-0.3
				c-3.4-0.5-6.6-1.7-9.8-2.5c-3.3-0.9-6.7-1.7-10.3-2.3c-5.4-0.8-11.2-1.1-16.8-0.9c-1.1,0-2.2,0.1-3.2,0.2
				C50.1,5.4,40.5,8,36.9,9.1c3,0,5.6,0.1,7.8,0.3C48.1,9.8,52.2,10.3,54.9,11.5z"/>
		</g>
	</g>
	<g>
		<text transform="matrix(1.9253 0 0 1 13.373 22.4375)" class="st1 st2">AUT</text>
		<text transform="matrix(2.0238 0 0 1 84.2461 22.4375)" class="st0 st1 st2">GEAR</text>
		<g>
			<g>
				<path class="st3" d="M85.6,16.4l-1.8,0l-12.3,0l2.1-0.1c0,0-4.7-2.2-8.2,0.3c0,0-2.3,2.2,1.7,3.6c0,0,3.3,1.4,6.6-0.2l-2.3-0.2
					c0,0,11.4-0.2,13.3,0.1l-7.1,0.1l-0.4,0.4l0.8,0.4h3.7c0,0-2.6,0.2-3.7,0.1l0.3,0.3l-2.2,1.1L74.7,22c0,0-1.9,0.5-2.4,0.5
					l-0.5,0.9l-3.1,0.1l-0.5-1.1c0,0-1.9-0.4-2-0.5C66,21.8,66.2,22,66.2,22l-2,0.6l-2.3-1.1l1.3-0.9c0,0-1.3-0.8-1.3-1.2l-1.8-0.2
					v-1.5l1.4-0.2l0.9-1.6l-0.8-0.5l2.2-1.2l1.1,0.5c0,0,1-0.6,3-0.6l0.3-1h3l0.5,1.1c0,0,1.4,0.1,2,0.5l1.8-0.7l2.2,1.2L76.9,16
					l0.4,0.3L85.6,16.4"/>
			</g>
			<path class="st0" d="M71.2,14.9c1.4,0.2,2.5,0.6,3.2,1.1l0.5-0.2c-0.8-0.7-2.1-1.2-3.7-1.4c-3.4-0.4-7,0.6-8.1,2.4
				c-0.7,1.1-0.2,2.2,1.1,3c-1-0.7-1.3-1.7-0.7-2.6C64.6,15.5,68,14.5,71.2,14.9z"/>
			<path class="st4" d="M72,21c-3.3,0.4-6.7-0.6-7.5-2.3c-0.6-1.3,0.3-2.6,2.3-3.4c-2.3,0.7-3.5,2.1-2.8,3.5
				c0.9,1.7,4.2,2.7,7.5,2.3c0.8-0.1,1.5-0.3,2.2-0.5C73.1,20.8,72.6,21,72,21z"/>
			<path class="st0" d="M75.1,20.2l0.8,0.1c0,0-2.4,2-7.2,1.7C68.7,22,71.9,22.4,75.1,20.2z"/>
		</g>
	</g>
</g>
</svg>
