<?xml version="1.0" encoding="utf-8"?>
<!-- Generator: Adobe Illustrator 21.0.0, SVG Export Plug-In . SVG Version: 6.00 Build 0)  -->
<svg version="1.1" id="Layer_1" xmlns="http://www.w3.org/2000/svg" xmlns:xlink="http://www.w3.org/1999/xlink" x="0px" y="0px"
	 viewBox="0 0 168 53.1" style="enable-background:new 0 0 168 53.1;font-family:'VALORANT-Regular'" xml:space="preserve">
<!-- <style type="text/css">
	.st0{fill:#D52834;}
	.st1{fill:#010101;}
	.st2{font-family:'VALORANT-Regular';}
	.st3{font-size:27.8205px;}
	.st4{fill:#070808;}
	.st5{fill:#91908E;}
</style> -->
<g>
	<g>
		<g>
			<path class="st0" d="M97.4,13.6c0.4-0.2,8.9,8.2,8.9,8.2h-2.6H68.9l32.9-1.4L97.4,13.6z"/>
		</g>
		<g>
			<path class="st0" d="M51.3,23.6C30,18.3,12.2,26,12.2,26l-2.6-5.8l7.5-0.2C7.8,17.3,4,11.3,4,11.3c0.8,0.2,20.2,4.4,25.5,3.5
				c1.7-0.2,3.4-0.9,5.1-1.4c3-1.2,6-2.8,8.2-3.7c7-2.6,14.7-4.9,22.1-6.1c3.5-0.5,7.1-0.7,10.6-0.7c6.7,0,13.5,1.2,20,3.3
				c3.1,0.9,6.2,2.3,9.1,4c2.4,1.4,4.5,2.8,7,4c1,0.5,2,0.9,3,1.2c1.7,0.5,3.4,0.5,5.1,0.7c6,0.2,11.8,0.2,17.6,1.2
				c7.4,1.2,14.7,2.6,21.9,4.7c0.2,0,3.5,0.7,3.5,0.9v0.7c-28.4-7.7-39.6-4.9-43.9-5.1c-1.9,0-3.9-0.2-5.7-0.7
				c-3.8-1.2-7.4-4-11-5.8c-3.7-2.1-7.5-4-11.6-5.4c-6.1-1.9-12.6-2.6-18.9-2.1c-1.2,0-2.5,0.2-3.6,0.5C45.9,9.4,35.1,15.5,31.1,18
				c3.4,0,6.3,0.2,8.8,0.7C43.7,19.7,48.3,20.8,51.3,23.6z"/>
		</g>
	</g>
	<g>
		<text transform="matrix(0.9275 0 0 1 4.6575 49.157)"  class="st1 st2 st3">AUT</text>
		<text transform="matrix(0.9749 0 0 1 84.2952 49.157)" class="st0 st2 st3">GEAR</text>
		<g>
			<g>
				<path class="st4" d="M85.8,35.1h-2H70l2.4-0.2c0,0-5.3-5.1-9.2,0.7c0,0-2.6,5.1,1.9,8.4c0,0,3.7,3.3,7.4-0.5L69.9,43
					c0,0,12.8-0.5,14.9,0.2l-8,0.2l-0.4,0.9l0.9,0.9h4.2c0,0-2.9,0.5-4.2,0.2l0.3,0.7l-2.5,2.6l-1.6-0.7c0,0-2.1,1.2-2.7,1.2
					l-0.6,2.1l-3.5,0.2l-0.6-2.6c0,0-2.1-0.9-2.2-1.2c-0.2-0.2,0,0.2,0,0.2l-2.2,1.4L59.2,47l1.5-2.1c0,0-1.5-1.9-1.5-2.8l-2-0.5
					v-3.5l1.6-0.5l1-3.7l-0.9-1.2l2.5-2.8l1.2,1.2c0,0,1.1-1.4,3.4-1.4l0.3-2.3h3.4l0.6,2.6c0,0,1.6,0.2,2.2,1.2l2-1.6l2.5,2.8
					L76,34.1l0.4,0.7L85.8,35.1"/>
			</g>
			<path class="st0" d="M69.6,31.6c1.6,0.5,2.8,1.4,3.6,2.6l0.6-0.5c-0.9-1.6-2.4-2.8-4.2-3.3c-3.8-0.9-7.9,1.4-9.1,5.6
				c-0.8,2.6-0.2,5.1,1.2,7c-1.1-1.6-1.5-4-0.8-6.1C62.2,33,66,30.6,69.6,31.6z"/>
			<path class="st5" d="M70.5,45.8c-3.7,0.9-7.5-1.4-8.4-5.4c-0.7-3,0.3-6.1,2.6-7.9c-2.6,1.6-3.9,4.9-3.1,8.2c1,4,4.7,6.3,8.4,5.4
				c0.9-0.2,1.7-0.7,2.5-1.2C71.8,45.3,71.2,45.8,70.5,45.8z"/>
			<path class="st0" d="M74,43.9l0.9,0.2c0,0-2.7,4.7-8.1,4C66.8,48.1,70.4,49.1,74,43.9z"/>
		</g>
	</g>
</g>
</svg>
